<svg width="20" height="20" viewBox="0 0 20 20" fill="none" xmlns="http://www.w3.org/2000/svg">
<path fill-rule="evenodd" clip-rule="evenodd" d="M10.2373 15.8279C10.1306 15.9062 10.0311 15.9773 9.94017 16.0411C9.84317 15.9767 9.73558 15.9028 9.61892 15.8193C9.06883 15.4257 8.35542 14.848 7.65282 14.1274C6.21168 12.6493 5 10.7626 5 8.75C5 5.98857 7.23857 3.75 10 3.75C12.7614 3.75 15 5.98857 15 8.75C15 10.741 13.7349 12.6223 12.2411 14.1161C11.5163 14.8409 10.787 15.4249 10.2373 15.8279ZM16.25 8.75C16.25 13.75 10 17.5 10 17.5C9.6875 17.5 3.75 13.75 3.75 8.75C3.75 5.29822 6.54822 2.5 10 2.5C13.4517 2.5 16.25 5.29822 16.25 8.75ZM11.25 8.75C11.25 9.44033 10.6903 10 10 10C9.30967 10 8.75 9.44033 8.75 8.75C8.75 8.05964 9.30967 7.5 10 7.5C10.6903 7.5 11.25 8.05964 11.25 8.75ZM12.5 8.75C12.5 10.1307 11.3807 11.25 10 11.25C8.61925 11.25 7.5 10.1307 7.5 8.75C7.5 7.36929 8.61925 6.25 10 6.25C11.3807 6.25 12.5 7.36929 12.5 8.75Z" fill="white"/>
</svg>
