<svg width="50" height="50" viewBox="0 0 50 50" fill="none" xmlns="http://www.w3.org/2000/svg">
<path d="M6.71272 21.5161C5.20929 19.7937 3.95793 17.8545 2.99819 15.7599C1.42983 12.3164 1.41333 10.4034 1.76002 10.2673C2.1067 10.1313 7.14196 10.3608 9.43671 10.3778C11.7315 10.3948 12.7385 10.3778 12.7385 10.2418C12.7385 10.1058 12.4001 6.33066 12.1112 4.29007C11.8223 2.24947 11.5416 0.889074 11.7067 0.838059C14.1153 1.01969 16.4807 1.59365 18.7148 2.53856C22.842 4.09451 23.6675 5.60795 23.6675 5.60795C25.9958 3.76832 28.5632 2.27432 31.2947 1.16966C35.2981 -0.275766 36.8747 -0.0717066 37.015 0.174865C37.1554 0.421437 35.133 9.85919 35.4797 9.96122C37.3282 9.93929 39.1625 9.62676 40.9194 9.03445C43.1729 8.27773 46.6976 6.48371 47.069 6.48371C47.4405 6.48371 47.7459 9.47658 46.194 13.1582C44.6422 16.8397 44.2707 17.3414 44.4111 17.4094C45.5549 17.1116 46.6752 16.725 47.7624 16.2531C48.9263 15.7514 49.5371 15.6749 49.6775 16.1C50.0449 19.2478 49.2912 22.426 47.556 25.0446C44.9063 28.6667 43.7425 28.8537 43.6434 28.9983C43.5443 29.1428 43.6434 29.908 46.194 30.4522C48.7447 30.9964 50.0324 30.9539 49.9994 31.5235C49.7185 32.8192 49.1862 34.043 48.4344 35.1214C47.6825 36.1997 46.7267 37.1103 45.6245 37.7984C42.2484 39.873 42.042 39.873 42.1163 40.1535C42.1906 40.4341 42.2319 46.1053 42.1163 46.5389C42.0008 46.9725 40.8534 47.7207 39.0374 47.3892C37.391 47.0725 35.7942 46.5261 34.291 45.7652C33.9315 45.5167 33.5969 45.2318 33.2923 44.9149C33.2923 44.9149 30.2546 46.5644 29.5364 46.8535C29.1083 47.0267 28.6624 47.1493 28.2075 47.2191C28.2075 47.2191 28.2075 49.6168 28.1167 49.7698C28.0216 49.8601 27.9058 49.9239 27.7801 49.9551C27.6544 49.9864 27.5231 49.9841 27.3985 49.9484C26.9694 49.8764 26.5317 49.8764 26.1026 49.9484C25.8315 50.0172 25.5482 50.0172 25.2771 49.9484C24.8432 49.9102 24.4069 49.9102 23.9729 49.9484C23.5932 49.9484 22.6687 49.9484 22.6027 49.7103C22.5366 49.4723 22.4128 47.4147 22.4128 47.4147C21.1122 47.3156 19.8412 46.9666 18.6653 46.3859C17.9357 45.9805 17.2817 45.4451 16.7337 44.8044C15.6386 45.9137 14.2479 46.6625 12.7385 46.9555C10.5511 47.2191 9.37893 46.9555 9.43671 46.7685C9.49449 46.5814 11.1784 40.9698 10.7657 41.0038C10.353 41.0378 3.1963 41.3524 2.61023 41.3524C2.02416 41.3524 1.37205 40.6637 1.61143 40.128C1.85081 39.5924 4.91324 34.3804 6.07712 33.173C7.24101 31.9656 7.88486 31.2174 7.88486 31.2174C6.42097 30.5837 4.88403 30.1465 3.31186 29.9166C1.05013 29.653 -0.122013 28.8792 0.0100588 28.5987C0.983939 26.9068 2.19689 25.3738 3.60903 24.0498C5.24342 22.6639 6.71272 21.5161 6.71272 21.5161Z" fill="#1D1D1B"/>
<path d="M3.41091 11.6617C3.65854 11.4066 14.5545 11.7127 14.5875 11.5002C14.6205 11.2876 13.0357 2.0199 13.3493 2.0199C15.927 2.79776 18.4173 3.85515 20.7784 5.17433C22.9493 6.60274 23.0566 7.1299 23.6427 7.09589C24.2288 7.06188 26.9445 4.38359 30.6013 2.94668C34.258 1.50976 35.4879 1.41623 35.4879 1.56077C35.4879 1.70531 34.2993 7.77609 34.0682 8.90692C33.837 10.0377 33.705 11.2366 33.9443 11.3046C36.2455 11.3725 38.5436 11.086 40.7626 10.4544C44.0066 9.51059 46.3261 8.19271 46.3674 8.43928C45.5925 11.099 44.5897 13.6826 43.371 16.1595C42.3887 17.7155 41.9925 19.0589 42.1989 19.1694C42.4052 19.2799 43.5691 18.9058 45.7896 18.2171C48.01 17.5284 48.2659 17.4179 48.2659 17.5284C48.3079 19.8325 47.675 22.0961 46.4499 24.0243C45.1234 25.8695 43.5821 27.54 41.8604 28.9983C41.9767 29.4624 42.1828 29.8975 42.4666 30.2774C42.7503 30.6573 43.1056 30.9742 43.5113 31.2089C44.4771 31.6596 48.2164 32.2292 48.1834 32.4418C47.3006 34.5886 45.7616 36.3798 43.8002 37.5433C40.9029 39.0822 40.5562 39.2438 40.4984 39.5159C40.4406 39.7879 40.647 45.6887 40.4076 45.7227C39.0102 45.6079 37.6275 45.3487 36.2804 44.9489C35.1165 44.5323 34.6295 44.1497 34.6295 44.0477C35.5603 42.8748 36.3451 41.5866 36.9655 40.2131C37.2948 39.3962 37.5195 38.5388 37.6341 37.6623C37.6341 37.6623 41.4064 37.8494 41.7614 35.1116C42.1163 32.3738 40.2013 31.8721 39.6565 31.7786C39.2961 31.6944 38.9281 31.6488 38.5586 31.6426C38.5586 31.6426 39.5161 22.885 36.6353 18.0386C33.7545 13.1922 30.6838 10.6329 24.4517 10.8965C18.2195 11.1601 14.8847 14.5441 13.3576 21.0995C11.8305 27.6549 12.235 31.4215 12.235 31.4215C12.235 31.4215 9.18906 31.549 9.27986 35.4347C9.37066 39.3203 13.3493 38.5381 13.3493 38.5381C13.3264 39.7143 13.6423 40.8712 14.2573 41.8625C15.2644 43.444 15.7184 44.0392 15.7184 44.0392C15.7184 44.0392 11.6902 45.6206 11.6572 45.3826C11.6241 45.1445 12.689 41.5224 12.5487 41.1313C12.4083 40.7402 11.7232 39.975 11.4756 39.975C11.2279 39.975 3.46043 40.3236 3.38614 39.975C3.31185 39.6264 5.11134 36.7781 6.91082 34.4399C8.7103 32.1017 9.59354 31.2004 9.56052 30.8858C9.5275 30.5712 8.31409 29.0918 5.66439 28.6922C3.01469 28.2926 1.96637 28.3351 2.0324 28.2331C3.3239 26.5188 4.80607 24.9664 6.44857 23.6077C7.26467 23.1532 7.97458 22.5206 8.5287 21.7542C7.12315 20.1356 5.89158 18.3653 4.85545 16.4741C3.3944 13.6428 3.31185 11.7723 3.41091 11.6617Z" fill="#85BFE9"/>
<path d="M15.5203 7.97163C15.2253 6.70415 14.9966 5.42126 14.8352 4.12851C15.8782 4.42183 16.8924 4.81464 17.8646 5.30185C17.8646 5.44639 17.8646 6.05007 17.7655 6.05007C17.1801 5.88397 16.5844 5.75898 15.9826 5.67596C15.9826 5.77799 16.2632 7.37646 16.2302 7.43598C16.1972 7.49549 15.5863 8.06516 15.5203 7.97163Z" fill="#1D1D1B"/>
<path d="M28.29 5.84603C29.1097 5.12619 30.0138 4.51492 30.981 4.0265C31.9715 3.66089 31.8064 3.49084 31.9715 3.66089C32.1366 3.83094 32.3595 4.40061 32.2522 4.51114C31.3982 4.81112 30.5699 5.18368 29.7758 5.62497C28.9916 6.16062 28.9504 6.47522 28.7605 6.4072C28.5707 6.33918 28.3891 5.99057 28.29 5.84603Z" fill="#1D1D1B"/>
<path d="M12.1772 32.9859C12.4936 34.3391 12.687 35.7196 12.755 37.1096C12.656 37.1096 10.8069 36.8801 10.7904 35.5027C10.8118 35.0001 10.9487 34.5099 11.1898 34.0724C11.4308 33.6349 11.7693 33.2625 12.1772 32.9859Z" fill="#E6E4DA"/>
<path d="M38.5999 33.02C38.7072 32.9009 40.5562 33.02 40.2508 34.6609C39.9454 36.3019 37.9478 36.8801 37.9065 36.659C38.053 35.9898 38.2321 35.3286 38.4431 34.678C38.6742 33.6832 38.3935 33.2325 38.5999 33.02Z" fill="#E6E4DA"/>
<path d="M24.3278 12.4099C27.6297 12.4099 31.6248 12.597 34.7533 18.2171C37.8818 23.8373 37.5351 28.2926 36.6849 33.3175C35.8346 38.3425 34.4809 41.3439 33.6389 42.3047C33.3159 42.7015 32.9626 43.0711 32.5824 43.41C31.9486 42.8917 31.2687 42.4362 30.5518 42.0496C30.3784 42.1176 30.139 42.3727 30.2133 42.5087C30.2876 42.6448 31.8642 43.8011 31.7982 43.9116C31.7321 44.0222 30.8407 44.6599 30.7416 44.5493C30.0925 43.9738 29.4118 43.4372 28.7027 42.9424C28.5707 42.9424 28.1579 43.2654 28.2322 43.41C28.3065 43.5545 30.1886 44.8044 29.9904 44.9489C29.7923 45.0935 28.6945 45.5951 28.5542 45.4846C28.4138 45.3741 26.961 43.8436 26.829 43.8436C26.6969 43.8436 26.3172 44.0562 26.4162 44.2347C26.5153 44.4133 27.5966 45.7397 27.5966 45.7397C25.3631 46.0167 23.1037 45.9881 20.8775 45.6546C17.8233 45.0765 15.6689 41.6075 14.6866 37.9089C13.7043 34.2103 13.7043 26.337 14.7691 21.9837C15.834 17.6305 17.7077 12.461 24.3278 12.4099Z" fill="#E6E4DA"/>
<path d="M23.5272 47.3977C23.6262 47.2956 24.559 47.4657 25.4835 47.3977C26.408 47.3296 26.8537 47.3466 26.8537 47.4487C26.8537 47.5507 26.9693 49.0046 26.8537 49.0386C26.4445 49.1702 26.0088 49.1878 25.5908 49.0896C25.2097 48.8849 24.7817 48.7909 24.3526 48.8176C24.0142 48.8856 23.8078 49.1407 23.7005 48.9961C23.5662 48.4751 23.5078 47.9364 23.5272 47.3977Z" fill="#E6E4DA"/>
<path d="M17.5096 17.588C17.782 17.4859 19.986 16.117 25.2771 16.1425C30.5683 16.168 33.5812 17.6305 33.6555 18.0556C33.7297 18.4807 33.6555 20.1387 33.3665 20.1387C33.0776 20.1387 31.435 18.9569 25.3679 19.0249C19.3009 19.0929 17.5592 20.5808 17.2207 20.3428C16.8823 20.1047 16.5191 17.9451 17.5096 17.588Z" fill="#1D1D1B"/>
<path d="M17.8563 18.1746C18.0627 17.7325 20.5555 16.7377 25.5578 16.9758C30.56 17.2139 32.9043 18.0811 32.9043 18.3702C32.9043 18.6593 33.0776 19.1099 32.9043 19.1099C30.444 18.379 27.885 18.0631 25.3266 18.1746C22.8564 18.2732 20.4027 18.6351 18.0049 19.2545C17.7242 19.1694 17.7903 18.2852 17.8563 18.1746Z" fill="#85BFE9"/>
<path d="M27.5801 21.5756C29.8831 20.6063 34.1837 21.312 34.0269 26.1499C33.8701 30.9878 28.1414 31.668 26.2016 28.9642C24.2618 26.2605 25.1863 22.5704 27.5801 21.5756Z" fill="#1D1D1B"/>
<path d="M27.9433 22.3323C29.8253 21.5331 33.3418 22.1113 33.2345 26.0819C33.1272 30.0526 28.3973 30.6137 26.8042 28.3776C25.2111 26.1414 25.9787 23.1571 27.9433 22.3323Z" fill="white"/>
<path d="M18.17 21.4481C20.2914 20.5553 24.237 21.2015 24.1132 25.6568C23.9894 30.1121 18.69 30.7583 16.8988 28.2586C15.1075 25.7588 15.966 22.3749 18.17 21.4481Z" fill="#1D1D1B"/>
<path d="M18.5084 22.1538C20.2419 21.4226 23.4611 21.9497 23.3786 25.6143C23.296 29.2789 18.9294 29.789 17.4601 27.7484C15.9908 25.7078 16.7337 22.919 18.5084 22.1538Z" fill="white"/>
<path d="M19.631 24.8491C19.7782 24.7771 19.9419 24.7484 20.104 24.7663C20.266 24.7841 20.4201 24.8479 20.5492 24.9503C20.6783 25.0528 20.7773 25.1901 20.8353 25.347C20.8933 25.5038 20.9081 25.6742 20.8779 25.8392C20.8478 26.0041 20.7739 26.1573 20.6645 26.2817C20.5551 26.4061 20.4144 26.4969 20.2579 26.544C20.1015 26.5912 19.9355 26.5928 19.7782 26.5488C19.621 26.5047 19.4786 26.4167 19.3669 26.2945C19.2793 26.1866 19.216 26.0601 19.1816 25.924C19.1471 25.788 19.1424 25.6457 19.1676 25.5076C19.1929 25.3694 19.2475 25.2387 19.3276 25.1248C19.4078 25.011 19.5114 24.9168 19.631 24.8491Z" fill="#1D1D1B"/>
<path d="M29.3383 25.2232C29.486 25.1523 29.6497 25.1248 29.8115 25.1438C29.9733 25.1628 30.1269 25.2275 30.2553 25.3308C30.3836 25.4341 30.4817 25.5719 30.5388 25.729C30.5959 25.8861 30.6096 26.0564 30.5786 26.2211C30.5476 26.3858 30.4729 26.5384 30.3629 26.6621C30.2529 26.7859 30.1119 26.8758 29.9554 26.9222C29.7988 26.9685 29.6329 26.9693 29.4759 26.9245C29.319 26.8798 29.1771 26.7912 29.0659 26.6686C28.9787 26.5602 28.9159 26.4331 28.8821 26.2967C28.8482 26.1602 28.8442 26.0178 28.8702 25.8795C28.8963 25.7413 28.9518 25.6107 29.0327 25.4972C29.1137 25.3837 29.2181 25.2901 29.3383 25.2232Z" fill="#1D1D1B"/>
<path d="M16.6677 29.857C17.3626 30.4786 18.228 30.8619 19.144 30.9538C19.9999 31.0179 20.8601 30.9287 21.6864 30.6903C21.8515 30.7328 21.8597 31.2429 21.8515 31.379C20.8708 31.8003 19.7916 31.9156 18.7478 31.7106C17.8127 31.5991 16.9408 31.168 16.2714 30.4862C16.1971 30.3417 16.5686 29.857 16.6677 29.857Z" fill="#1D1D1B"/>
<path d="M28.8843 31.4215C29.7624 31.7088 30.7054 31.7088 31.5836 31.4215C32.3908 31.1461 33.143 30.7226 33.804 30.1716C33.9774 30.1716 34.1755 30.6138 34.2167 30.7413C33.4713 31.5242 32.5179 32.0625 31.4762 32.2887C30.581 32.5421 29.6297 32.4853 28.7688 32.1272C28.6284 32.0592 28.7853 31.4555 28.8843 31.4215Z" fill="#1D1D1B"/>
<path d="M23.1557 31.6C23.1557 31.4895 23.7583 31.345 23.7996 31.515C23.8408 31.6851 23.6923 36.9396 25.0955 36.9056C26.4988 36.8716 26.0365 31.498 26.1686 31.4215C26.3841 31.3798 26.6052 31.3798 26.8207 31.4215C26.8207 31.4215 27.6462 37.8749 25.1698 37.8409C22.6935 37.8069 23.164 31.6681 23.1557 31.6Z" fill="#1D1D1B"/>
<path d="M16.8575 39.6859C16.831 39.1873 16.884 38.6875 17.0144 38.2065C17.2207 37.7388 17.8398 37.2117 17.9719 37.2457C18.1039 37.2797 18.3846 37.6283 18.2773 37.7729C18.17 37.9174 17.5674 38.266 17.5344 38.6911C17.5014 39.1163 17.5344 39.856 17.4436 39.8985C17.2309 39.8954 17.0251 39.8208 16.8575 39.6859Z" fill="#1D1D1B"/>
<path d="M30.8242 37.3137C30.8242 37.3137 31.2616 36.7781 31.402 36.7781C31.6805 36.8926 31.9337 37.0638 32.1465 37.2815C32.3592 37.4992 32.5271 37.7588 32.6402 38.0449C32.9538 38.8952 32.9621 39.6944 32.7227 39.7454C32.4833 39.7965 32.0706 39.856 32.0706 39.7454C32.0706 39.6349 32.409 38.6911 32.0706 38.1215C31.7331 37.7418 31.3025 37.4628 30.8242 37.3137Z" fill="#1D1D1B"/>
<path d="M18.6982 39.0737C18.8716 39.1247 20.5308 40.2896 24.4021 40.1535C26.5954 40.0312 28.7606 39.5875 30.8324 38.8357C30.9301 39.057 30.9781 39.2983 30.9727 39.5414C30.9727 39.6774 28.2074 41.1143 24.27 41.0378C20.3326 40.9613 18.5414 39.992 18.4919 39.8475C18.4424 39.7029 18.5992 39.0397 18.6982 39.0737Z" fill="#1D1D1B"/>
</svg>
