<svg width="25" height="26" viewBox="0 0 25 26" fill="none" xmlns="http://www.w3.org/2000/svg">
<path d="M2.08334 9.875C2.08334 6.92872 2.08334 5.45558 2.99863 4.54029C3.91392 3.625 5.38705 3.625 8.33334 3.625H16.6667C19.6129 3.625 21.086 3.625 22.0014 4.54029C22.9167 5.45558 22.9167 6.92872 22.9167 9.875V10.9167C22.9167 13.8629 22.9167 15.336 22.0014 16.2514C21.086 17.1667 19.6129 17.1667 16.6667 17.1667H8.33334C5.38705 17.1667 3.91392 17.1667 2.99863 16.2514C2.08334 15.336 2.08334 13.8629 2.08334 10.9167V9.875Z" stroke="#C1C1C1" stroke-width="1.5"/>
<path d="M12.5 20.2917V17.6875M12.5 20.2917L18.75 22.375M12.5 20.2917L6.25 22.375" stroke="#C1C1C1" stroke-width="1.5" stroke-linecap="round"/>
</svg>
