<svg width="51" height="51" viewBox="0 0 51 51" fill="none" xmlns="http://www.w3.org/2000/svg">
<path d="M2.76723 26.5057C2.76723 26.5057 0.896539 20.6452 1.66031 16.5181C1.96073 14.2805 3.10439 12.1907 4.91465 10.5714C4.91465 10.5714 6.59716 5.02702 16.7365 2.15426C26.8759 -0.718495 43.5793 0.77534 46.6233 12.4866C49.6673 24.1979 47.7302 27.4441 47.7302 27.4441C48.2148 27.5745 48.6644 27.7871 49.0529 28.0696C49.4414 28.352 49.7609 28.6986 49.9928 29.0891C50.2247 29.4796 50.3643 29.9062 50.4034 30.3439C50.4426 30.7816 50.3805 31.2216 50.2208 31.6383C49.1139 34.8079 43.9335 34.7505 43.9335 34.7505C43.0028 35.8661 41.9936 36.931 40.9116 37.9393C40.2041 38.6223 39.3605 39.1899 38.421 39.615C38.421 39.615 44.2988 43.7422 45.1954 45.7819C46.092 47.8215 44.7858 49.5548 44.1659 49.7271C43.5461 49.8995 41.7418 50.8092 36.1408 50.5124C30.5398 50.2155 30.4623 49.9091 27.8389 50.3879C25.2266 50.8809 22.5411 51.0166 19.8802 50.7901C18.3526 50.4836 14.0689 49.0472 12.4085 48.9323C10.7481 48.8174 7.12848 48.8749 7.051 47.9173C6.97352 46.9597 8.36823 44.7668 9.91792 42.9666C10.7413 41.9537 11.7732 41.0805 12.9619 40.3907C10.7778 39.1201 9.03026 37.3635 7.90333 35.3059C7.90333 35.3059 3.61956 36.3209 1.19541 32.1937C-1.22874 28.0665 2.76723 26.5057 2.76723 26.5057Z" fill="#1D1D1B"/>
<path d="M4.28371 25.4907C4.28371 25.4907 1.72673 19.0269 3.53101 15.9723C5.33528 12.9176 5.49025 12.6207 5.49025 12.6207C5.49025 12.6207 8.60069 6.46342 15.0983 4.60571C21.5959 2.74799 30.9493 1.12967 38.8085 5.3239C46.6676 9.51812 46.7008 23.3935 46.6233 24.1788C46.5458 24.964 46.3466 25.0119 46.3466 25.0119C46.3288 21.3787 45.1072 17.8261 42.8266 14.7753C39.0188 9.74794 34.4472 6.33894 25.7358 6.46342C17.0243 6.58791 9.47515 12.4866 8.9217 13.7028C8.36824 14.9189 7.88119 15.7329 7.88119 15.7329C7.88119 15.7329 6.91818 14.4784 6.70786 14.4784C6.49755 14.4784 5.94409 14.7178 6.08799 15.0817C6.23189 15.4456 7.26132 16.3936 7.26132 16.633C7.20492 16.9404 7.1122 17.2421 6.98459 17.5331C6.98459 17.5331 5.32421 16.2116 5.04749 16.3936C4.77076 16.5755 4.77076 17.3512 4.77076 17.3512C4.77076 17.3512 6.36472 18.7876 6.2983 18.9695C5.69052 20.2137 5.27014 21.5203 5.04749 22.8573C4.97616 23.7674 4.71751 24.6592 4.28371 25.4907Z" fill="#7B5207"/>
<path d="M4.70433 28.3059C4.70433 28.3059 5.60093 30.518 6.08798 31.533C6.3758 32.1257 6.56224 32.7515 6.64143 33.3907C5.88962 33.3194 5.17302 33.0772 4.56448 32.6887C3.95594 32.3001 3.47715 31.7792 3.17678 31.1787C2.28018 29.139 4.38332 28.5453 4.70433 28.3059Z" fill="#FCD396"/>
<path d="M46.6233 28.9666C46.6233 28.9666 46.2802 30.1636 45.8706 31.4755C45.6955 32.1253 45.4161 32.7506 45.0404 33.3332C45.0404 33.3332 48.2173 33.1513 48.6379 31.533C48.7067 31.2496 48.7088 30.9571 48.644 30.673C48.5793 30.3889 48.449 30.1191 48.2609 29.8795C48.0729 29.64 47.8309 29.4357 47.5496 29.2788C47.2682 29.122 46.9532 29.0158 46.6233 28.9666Z" fill="#FCD396"/>
<path d="M26.6988 8.31152C32.3773 8.31152 38.9524 11.0119 42.4059 18.0693C45.8595 25.1267 45.1068 32.2512 40.1257 36.206C35.1446 40.1608 30.6505 42.5452 22.2047 41.4153C13.7589 40.2853 10.3718 36.206 7.81478 31.1787C5.2578 26.1514 6.59717 8.43601 26.6988 8.31152Z" fill="#FCD396"/>
<path d="M14.6002 41.2142C15.1979 40.8312 18.8175 44.0295 26.9755 43.3113C35.1335 42.5931 36.3179 40.7354 36.6611 40.7354C37.0042 40.7354 42.6827 44.3838 43.4465 45.8776C44.2102 47.3715 44.0663 48.3961 43.7232 48.4536C43.3995 48.4845 43.0728 48.4845 42.7491 48.4536C42.7491 48.4536 39.2291 43.4837 38.5317 43.4262C37.8344 43.3688 37.6351 43.5507 37.768 43.8476C37.9008 44.1444 41.4429 48.6355 41.2326 48.693C41.0223 48.7504 40.4024 49.2292 39.9818 48.9898C39.5612 48.7504 36.805 45.0445 36.4839 45.0445C36.1629 45.0445 35.377 45.2169 35.4434 45.3989C35.5099 45.5808 38.6314 49.1717 38.3546 49.2867C37.8304 49.38 37.2957 49.4218 36.7607 49.4111C36.7607 49.4111 33.9934 45.8776 33.5728 45.8776C33.1521 45.8776 32.8865 46.4809 32.8865 46.4809C32.8865 46.4809 35.3106 49.5931 35.0339 49.5931C33.1553 49.1864 31.2255 48.9838 29.289 48.9898C26.5217 49.1143 24.3743 50.0719 21.9501 49.8325C19.526 49.5931 16.5594 47.9173 14.1796 47.812C11.7997 47.7066 9.54158 47.6971 9.47516 47.4577C9.40875 47.2183 10.1725 44.087 14.6002 41.2142Z" fill="#FAB900"/>
<path d="M13.4933 16.1541C12.9841 16.1541 19.9245 14.9572 20.2676 15.321C20.6108 15.6849 20.8875 16.1541 20.334 16.1541C19.7806 16.1541 14.5227 17.2745 14.0467 17.1692C13.5708 17.0639 13.5597 16.1541 13.4933 16.1541Z" fill="#1D1D1B"/>
<path d="M34.1041 15.5604C34.3808 15.5604 40.1921 16.2786 40.2585 16.6904C40.3249 17.1021 40.7456 17.2362 40.0593 17.2937C38.0565 17.1162 36.0678 16.8348 34.1041 16.451C33.617 16.3169 34.1041 15.5604 34.1041 15.5604Z" fill="#1D1D1B"/>
<path d="M16.183 17.9544C19.9908 17.1692 25.3151 17.5331 25.1159 23.3935C24.9166 29.2539 16.9468 30.2211 13.139 27.8846C9.33122 25.5481 9.19839 19.3908 16.183 17.9544Z" fill="#1D1D1B"/>
<path d="M16.4377 18.7779C19.6588 18.1172 24.1861 18.4236 23.9979 23.3935C23.8097 28.3634 17.0797 29.139 13.8585 27.2238C10.6374 25.3087 10.5157 19.9941 16.4377 18.7779Z" fill="white"/>
<path d="M32.5101 18.1268C35.8308 16.6138 41.299 18.2513 41.5093 23.5755C41.7196 28.8996 34.8014 30.0392 31.3367 27.5877C27.8721 25.1363 27.1858 20.5878 32.5101 18.1268Z" fill="#1D1D1B"/>
<path d="M32.9529 19.0078C35.6759 17.7533 40.2253 19.1035 40.3914 23.5084C40.5574 27.9133 34.8568 28.8613 31.9788 26.8312C29.1008 24.8011 28.5474 21.0378 32.9529 19.0078Z" fill="white"/>
<path d="M17.1572 22.1965C18.1644 21.5262 19.9244 21.7848 19.9909 22.9147C20.044 23.2041 20.0059 23.5006 19.8805 23.7728C19.7552 24.045 19.5472 24.2829 19.2785 24.4613C19.0099 24.6398 18.6905 24.7522 18.3542 24.7868C18.0178 24.8213 17.6769 24.7766 17.3675 24.6575C15.6296 24.1117 16.5594 22.6179 17.1572 22.1965Z" fill="#1D1D1B"/>
<path d="M34.3808 22.1965C35.3881 21.5262 37.1481 21.7848 37.2145 22.9147C37.2716 23.2049 37.2361 23.503 37.1119 23.777C36.9878 24.051 36.7795 24.2906 36.5097 24.4698C36.2399 24.6491 35.9186 24.7613 35.5806 24.7944C35.2425 24.8274 34.9004 24.7801 34.5911 24.6575C32.8643 24.1117 33.7609 22.6179 34.3808 22.1965Z" fill="#1D1D1B"/>
<path d="M25.1823 30.0966C25.4812 30.1541 29.4661 32.1937 30.0195 31.8969C30.573 31.6 30.1634 30.2211 29.4661 29.7423C28.7687 29.2635 28.8462 29.5604 28.7798 29.2635C28.7609 29.2026 28.7597 29.1385 28.7763 29.0771C28.7929 29.0156 28.8268 28.9587 28.875 28.9113C28.9232 28.8639 28.9842 28.8275 29.0526 28.8055C29.1209 28.7834 29.1945 28.7763 29.2668 28.7847C29.8719 28.9027 30.4209 29.1778 30.8403 29.5731C31.2596 29.9684 31.5294 30.4651 31.6135 30.9968C31.9566 32.797 30.7169 33.3333 29.0565 32.9694C27.3946 32.4696 25.8472 31.7208 24.4849 30.7574C24.3078 30.518 24.8392 30.0392 25.1823 30.0966Z" fill="#1D1D1B"/>
<path d="M18.7733 34.7697C19.2492 34.7122 21.1199 36.7997 25.8907 36.6274C27.7645 36.6044 29.6262 36.3628 31.4253 35.9092C31.6516 35.9476 31.8563 36.0506 32.0069 36.2016C32.1574 36.3527 32.2449 36.5431 32.2555 36.7423C32.1891 36.9242 29.0787 38.0638 24.3743 37.6999C19.4263 37.3264 18.0759 35.7272 17.9431 35.4878C17.8102 35.2485 18.2641 34.8271 18.7733 34.7697Z" fill="#1D1D1B"/>
</svg>
