<svg width="27" height="26" viewBox="0 0 27 26" fill="none" xmlns="http://www.w3.org/2000/svg">
<path d="M18.1867 11.2557C18.1867 12.2189 17.6622 12.9998 17.0151 12.9998C16.3679 12.9998 15.8434 12.2189 15.8434 11.2557C15.8434 10.2924 16.3679 9.51147 17.0151 9.51147C17.6622 9.51147 18.1867 10.2924 18.1867 11.2557Z" fill="#C1C1C1" stroke="#C1C1C1" stroke-width="0.00064"/>
<path d="M11.1566 11.2557C11.1566 12.2189 10.6321 12.9998 9.98494 12.9998C9.33784 12.9998 8.81326 12.2189 8.81326 11.2557C8.81326 10.2924 9.33784 9.51147 9.98494 9.51147C10.6321 9.51147 11.1566 10.2924 11.1566 11.2557Z" fill="#C1C1C1" stroke="#C1C1C1" stroke-width="0.00064"/>
<path fill-rule="evenodd" clip-rule="evenodd" d="M13.4327 0.5H13.5673C16.272 0.499989 18.3916 0.499977 20.0454 0.72064C21.7381 0.9465 23.074 1.41783 24.1224 2.4583C25.1708 3.49878 25.6457 4.82438 25.8734 6.50431C26.0956 8.14557 26.0956 10.2491 26.0956 12.9333V13.0667C26.0956 15.7509 26.0956 17.8544 25.8734 19.4957C25.6457 21.1756 25.1708 22.5013 24.1224 23.5417C23.074 24.5822 21.7381 25.0535 20.0454 25.2794C18.3916 25.5 16.272 25.5 13.5673 25.5H13.4327C10.7281 25.5 8.60843 25.5 6.95462 25.2794C5.26184 25.0535 3.92609 24.5822 2.87766 23.5417C1.82922 22.5013 1.35429 21.1756 1.1267 19.4957C0.90435 17.8544 0.904362 15.7509 0.904373 13.0667V12.9333C0.904362 10.2491 0.90435 8.14557 1.1267 6.50431C1.35429 4.82438 1.82922 3.49878 2.87766 2.4583C3.92609 1.41783 5.26184 0.9465 6.95462 0.72064C8.60843 0.499977 10.7281 0.499989 13.4327 0.5ZM7.18881 2.44927C5.69091 2.64913 4.78787 3.02923 4.12042 3.69163C3.45296 4.35401 3.06994 5.2502 2.86855 6.73672C2.66377 8.24833 2.6619 10.2346 2.6619 13C2.6619 15.7653 2.66377 17.7516 2.86855 19.2633C3.06994 20.7498 3.45296 21.6459 4.12042 22.3084C4.78787 22.9708 5.69091 23.3509 7.18881 23.5507C8.71197 23.754 10.7135 23.7558 13.5 23.7558C16.2865 23.7558 18.288 23.754 19.8112 23.5507C21.3091 23.3509 22.2121 22.9708 22.8796 22.3084C23.5471 21.6459 23.9301 20.7498 24.1314 19.2633C24.3362 17.7516 24.3381 15.7653 24.3381 13C24.3381 10.2346 24.3362 8.24833 24.1314 6.73672C23.9301 5.2502 23.5471 4.35401 22.8796 3.69163C22.2121 3.02923 21.3091 2.64913 19.8112 2.44927C18.288 2.24603 16.2865 2.24419 13.5 2.24419C10.7135 2.24419 8.71197 2.24603 7.18881 2.44927ZM9.27897 17.1319C9.56797 16.7449 10.1183 16.6637 10.5082 16.9506C11.3617 17.5783 12.3917 17.9419 13.5 17.9419C14.6083 17.9419 15.6383 17.5783 16.4918 16.9506C16.8817 16.6637 17.4321 16.7449 17.721 17.1319C18.0101 17.5188 17.9283 18.065 17.5383 18.3517C16.399 19.1899 15.0056 19.686 13.5 19.686C11.9944 19.686 10.601 19.1899 9.46165 18.3517C9.07175 18.065 8.98997 17.5188 9.27897 17.1319Z" fill="#C1C1C1" stroke="#C1C1C1" stroke-width="0.00064"/>
</svg>
