<svg width="20" height="20" viewBox="0 0 20 20" fill="none" xmlns="http://www.w3.org/2000/svg">
<path d="M9.875 4C6.07812 4 3 6.45312 3 10.25C3 14.0469 6.07812 16.5 9.875 16.5C13.6719 16.5 16.75 14.0469 16.75 10.25C16.75 6.45312 13.6719 4 9.875 4ZM9.875 15.25C6.56313 15.25 4.25 13.1938 4.25 10.25C4.25 7.30625 6.56313 5.25 9.875 5.25C10.2644 5.25 10.6381 5.28063 10.9975 5.33563C11.0769 5.49938 11.125 5.68125 11.125 5.875C11.125 6.56437 10.5644 7.125 9.875 7.125C9.53062 7.125 9.21813 6.985 8.99125 6.75875L8.10687 7.64313C8.55937 8.095 9.18437 8.375 9.875 8.375C11.2556 8.375 12.375 7.25563 12.375 5.875C12.375 5.815 12.3619 5.75875 12.3575 5.7C14.2838 6.4575 15.5 8.11875 15.5 10.25C15.5 13.1938 13.1869 15.25 9.875 15.25ZM7.375 10.25H8.625V11.5H7.375V10.25ZM11.125 10.25H12.375V11.5H11.125V10.25Z" fill="white"/>
</svg>
