<svg width="26" height="26" viewBox="0 0 26 26" fill="none" xmlns="http://www.w3.org/2000/svg">
<path d="M13 16.125C14.7259 16.125 16.125 14.7259 16.125 13C16.125 11.2741 14.7259 9.875 13 9.875C11.2741 9.875 9.875 11.2741 9.875 13C9.875 14.7259 11.2741 16.125 13 16.125Z" stroke="#C1C1C1" stroke-width="1.5" stroke-miterlimit="10" stroke-linecap="round" stroke-linejoin="round"/>
<path d="M2.58333 13.9166V12.0832C2.58333 10.9999 3.46875 10.1041 4.56249 10.1041C6.44791 10.1041 7.21874 8.77078 6.27083 7.13536C5.72916 6.19786 6.05208 4.97911 6.99999 4.43744L8.80208 3.40619C9.62499 2.91661 10.6875 3.20828 11.1771 4.03119L11.2917 4.22911C12.2292 5.86453 13.7708 5.86453 14.7187 4.22911L14.8333 4.03119C15.3229 3.20828 16.3854 2.91661 17.2083 3.40619L19.0104 4.43744C19.9583 4.97911 20.2812 6.19786 19.7396 7.13536C18.7917 8.77078 19.5625 10.1041 21.4479 10.1041C22.5312 10.1041 23.4271 10.9895 23.4271 12.0832V13.9166C23.4271 14.9999 22.5417 15.8957 21.4479 15.8957C19.5625 15.8957 18.7917 17.2291 19.7396 18.8645C20.2812 19.8124 19.9583 21.0207 19.0104 21.5624L17.2083 22.5937C16.3854 23.0832 15.3229 22.7916 14.8333 21.9687L14.7187 21.7707C13.7812 20.1353 12.2396 20.1353 11.2917 21.7707L11.1771 21.9687C10.6875 22.7916 9.62499 23.0832 8.80208 22.5937L6.99999 21.5624C6.05208 21.0207 5.72916 19.802 6.27083 18.8645C7.21874 17.2291 6.44791 15.8957 4.56249 15.8957C3.46875 15.8957 2.58333 14.9999 2.58333 13.9166Z" stroke="#C1C1C1" stroke-width="1.5" stroke-miterlimit="10" stroke-linecap="round" stroke-linejoin="round"/>
</svg>
