<svg width="20" height="20" viewBox="0 0 20 20" fill="#fff" xmlns="http://www.w3.org/2000/svg">
<path d="M17.4969 3.06324C17.496 3.05435 17.4943 3.04573 17.4931 3.03696C17.4915 3.02555 17.4901 3.01411 17.4879 3.00278C17.4859 2.99255 17.483 2.9826 17.4805 2.97253C17.4781 2.96284 17.4759 2.95311 17.473 2.9435C17.47 2.93362 17.4663 2.92408 17.4628 2.91439C17.4594 2.90482 17.4563 2.89516 17.4524 2.88574C17.4486 2.87674 17.4442 2.86812 17.4401 2.85931C17.4355 2.84962 17.4312 2.83985 17.4261 2.83035C17.4216 2.82192 17.4165 2.81395 17.4116 2.80574C17.406 2.79644 17.4008 2.78698 17.3947 2.7779C17.3888 2.76905 17.3821 2.76069 17.3758 2.75219C17.3699 2.74437 17.3645 2.73635 17.3582 2.72873C17.3464 2.71427 17.3337 2.70046 17.3206 2.68711C17.3193 2.68577 17.3182 2.68432 17.3169 2.68303C17.3154 2.68154 17.3138 2.68032 17.3123 2.67887C17.2991 2.66594 17.2855 2.65342 17.2712 2.64167C17.264 2.63584 17.2565 2.63073 17.2492 2.62527C17.2402 2.61848 17.2313 2.6115 17.2219 2.6052C17.2135 2.59956 17.2048 2.59471 17.1962 2.58956C17.1873 2.58418 17.1785 2.57861 17.1693 2.57369C17.1608 2.56915 17.152 2.5653 17.1433 2.56118C17.1335 2.55649 17.1238 2.55164 17.1137 2.54745C17.1057 2.54413 17.0974 2.54146 17.0892 2.53848C17.0782 2.53444 17.0672 2.53024 17.0558 2.52681C17.0482 2.52448 17.0404 2.52288 17.0327 2.52086C17.0207 2.51773 17.0087 2.51441 16.9964 2.51201C16.9883 2.51041 16.9801 2.50953 16.972 2.50827C16.96 2.5064 16.9482 2.50427 16.936 2.50308C16.9236 2.50186 16.9112 2.50167 16.8987 2.50118C16.8908 2.50092 16.883 2.5 16.875 2.5H13.125C12.9592 2.5 12.8003 2.56585 12.6831 2.68306C12.5659 2.80027 12.5 2.95924 12.5 3.125C12.5 3.29076 12.5659 3.44973 12.6831 3.56694C12.8003 3.68415 12.9592 3.75 13.125 3.75H15.3661L12.0803 7.03575C10.8388 6.02099 9.2548 5.52221 7.65587 5.64254C6.05693 5.76288 4.56541 6.49314 3.48977 7.68229C2.41413 8.87143 1.83667 10.4285 1.87681 12.0315C1.91695 13.6344 2.57162 15.1606 3.70543 16.2944C4.83923 17.4283 6.36544 18.083 7.96839 18.1231C9.57134 18.1633 11.1284 17.5858 12.3176 16.5102C13.5067 15.4346 14.237 13.9431 14.3574 12.3441C14.4777 10.7452 13.979 9.16118 12.9642 7.91966L16.25 4.63391V6.875C16.25 7.04076 16.3159 7.19973 16.4331 7.31694C16.5503 7.43415 16.7092 7.5 16.875 7.5C17.0408 7.5 17.1997 7.43415 17.3169 7.31694C17.4342 7.19973 17.5 7.04076 17.5 6.875V3.12519C17.5 3.10451 17.4989 3.08384 17.4969 3.06324ZM11.6605 15.4105C10.9614 16.109 10.0709 16.5845 9.1016 16.777C8.13228 16.9694 7.12767 16.8702 6.21475 16.4918C5.30183 16.1134 4.52158 15.4728 3.97264 14.651C3.42371 13.8293 3.13072 12.8632 3.13072 11.875C3.13072 10.8868 3.42371 9.92071 3.97264 9.09895C4.52158 8.2772 5.30183 7.63664 6.21475 7.25824C7.12767 6.87984 8.13228 6.7806 9.1016 6.97305C10.0709 7.1655 10.9614 7.641 11.6605 8.33946C12.5969 9.27787 13.1227 10.5494 13.1227 11.875C13.1227 13.2006 12.5969 14.4721 11.6605 15.4105Z" fill="white"/>
</svg>
